
<svg width="157px" height="24px" viewBox="0 0 157 24" version="1.1" xmlns="http://www.w3.org/2000/svg" xmlns:xlink="http://www.w3.org/1999/xlink">
    <!-- Generator: Sketch 49.1 (51147) - http://www.bohemiancoding.com/sketch -->
    <desc>Created with Sketch.</desc>
    <defs>
        <polygon id="path-1" points="0 0.0600961538 24.9371658 0.0600961538 24.9371658 23.910559 0 23.910559"></polygon>
        <polygon id="path-3" points="0 0.0600961538 24.9371658 0.0600961538 24.9371658 23.910559 0 23.910559"></polygon>
        <polygon id="path-5" points="0 0.0600961538 24.9371658 0.0600961538 24.9371658 23.910559 0 23.910559"></polygon>
        <polygon id="path-7" points="0 0.0600961538 24.9371658 0.0600961538 24.9371658 23.910559 0 23.910559"></polygon>
        <polygon id="path-9" points="0 0.0600961538 24.9371658 0.0600961538 24.9371658 23.910559 0 23.910559"></polygon>
    </defs>
    <g id="Page-1" stroke="none" stroke-width="1" fill="none" fill-rule="evenodd">
        <g id="Mobile-Vendor-Landing-Page" transform="translate(-84.000000, -1124.000000)">
            <g id="Group-7" transform="translate(84.000000, 1124.000000)">
                <g id="Page-1">
                    <g id="Group-3" transform="translate(0.000000, 0.067768)">
                        <mask id="mask-2" fill="white">
                            <use xlink:href="#path-1"></use>
                        </mask>
                        <g id="Clip-2"></g>
                        <path d="M24.001484,0.0600577946 L24.0013503,0.0600577946 C23.4855749,0.0600577946 23.0656551,0.461423384 23.0655214,0.954723302 C23.0655214,0.987456526 23.0520187,4.26972944 22.126885,8.19349683 C20.6288904,14.545916 17.9258155,17.5059713 15.9219385,18.8706654 C13.1604412,20.7511636 9.61819519,21.1384641 5.38610963,20.025023 L5.73183155,19.6943663 L6.03998663,19.3995116 C6.03998663,19.3995116 6.04012032,19.3995116 6.04012032,19.3993837 L15.351484,10.4936452 C15.7164572,10.1447039 15.7164572,9.57685914 15.351484,9.22791786 C14.9867781,8.87897658 14.3929278,8.87897658 14.0280882,9.22791786 L2.96779412,19.8062474 C2.96779412,19.8063753 2.96766043,19.8063753 2.96766043,19.8065032 L0.273409091,22.3830938 C-0.0911631016,22.7320351 -0.0911631016,23.2998798 0.273409091,23.6488211 L0.273542781,23.648949 C0.456029412,23.8233557 0.695601604,23.910559 0.935307487,23.910559 C1.17487968,23.910559 1.41458556,23.8233557 1.59707219,23.6488211 L3.88276738,21.4627276 C6.00308824,22.1145791 7.98824866,22.4411441 9.83036096,22.4411441 C12.5409225,22.4411441 14.942393,21.7358454 17.0097727,20.3274217 C20.2814305,18.0981102 22.6891845,14.0247417 23.9727406,8.54742482 C24.9262166,4.47814802 24.9371791,1.09703611 24.9371791,0.95497903 C24.9370455,0.461679112 24.5172594,0.0601856588 24.001484,0.0600577946" id="Fill-1" fill="#89C547" mask="url(#mask-2)"></path>
                    </g>
                    <path d="M2.12929144,18.2261022 C2.30696524,18.3960337 2.54506684,18.4887352 2.79078877,18.4887352 C2.8509492,18.4887352 2.91164439,18.4831091 2.9719385,18.4717292 C3.21725936,18.4256981 3.42902406,18.2909293 3.56832888,18.0923563 C3.70776738,17.8939111 3.75790107,17.6553166 3.70963904,17.4208137 C2.99266043,13.9352368 3.54747326,10.9745422 5.35843583,8.62069098 C8.92955882,3.97922207 16.563115,2.55123517 20.7956016,2.1130447 C21.044131,2.08734401 21.2672594,1.97060403 21.4239439,1.78430595 C21.580762,1.59813574 21.6522861,1.36452793 21.6252807,1.12695632 C21.5699332,0.636469415 21.1080348,0.279600552 20.5942647,0.333303498 C16.0561631,0.803076412 7.84653743,2.36647146 3.85081551,7.55992993 C1.71632353,10.3341985 1.0509492,13.7681184 1.87314171,17.7665584 C1.90923797,17.9414766 1.99787433,18.1005396 2.12929144,18.2261022" id="Fill-4" fill="#89C547"></path>
                </g>
                <g id="Page-1-Copy-5" transform="translate(33.000000, 0.000000)">
                    <g id="Group-3" transform="translate(0.000000, 0.067768)">
                        <mask id="mask-4" fill="white">
                            <use xlink:href="#path-3"></use>
                        </mask>
                        <g id="Clip-2"></g>
                        <path d="M24.001484,0.0600577946 L24.0013503,0.0600577946 C23.4855749,0.0600577946 23.0656551,0.461423384 23.0655214,0.954723302 C23.0655214,0.987456526 23.0520187,4.26972944 22.126885,8.19349683 C20.6288904,14.545916 17.9258155,17.5059713 15.9219385,18.8706654 C13.1604412,20.7511636 9.61819519,21.1384641 5.38610963,20.025023 L5.73183155,19.6943663 L6.03998663,19.3995116 C6.03998663,19.3995116 6.04012032,19.3995116 6.04012032,19.3993837 L15.351484,10.4936452 C15.7164572,10.1447039 15.7164572,9.57685914 15.351484,9.22791786 C14.9867781,8.87897658 14.3929278,8.87897658 14.0280882,9.22791786 L2.96779412,19.8062474 C2.96779412,19.8063753 2.96766043,19.8063753 2.96766043,19.8065032 L0.273409091,22.3830938 C-0.0911631016,22.7320351 -0.0911631016,23.2998798 0.273409091,23.6488211 L0.273542781,23.648949 C0.456029412,23.8233557 0.695601604,23.910559 0.935307487,23.910559 C1.17487968,23.910559 1.41458556,23.8233557 1.59707219,23.6488211 L3.88276738,21.4627276 C6.00308824,22.1145791 7.98824866,22.4411441 9.83036096,22.4411441 C12.5409225,22.4411441 14.942393,21.7358454 17.0097727,20.3274217 C20.2814305,18.0981102 22.6891845,14.0247417 23.9727406,8.54742482 C24.9262166,4.47814802 24.9371791,1.09703611 24.9371791,0.95497903 C24.9370455,0.461679112 24.5172594,0.0601856588 24.001484,0.0600577946" id="Fill-1" fill="#89C547" mask="url(#mask-4)"></path>
                    </g>
                    <path d="M2.12929144,18.2261022 C2.30696524,18.3960337 2.54506684,18.4887352 2.79078877,18.4887352 C2.8509492,18.4887352 2.91164439,18.4831091 2.9719385,18.4717292 C3.21725936,18.4256981 3.42902406,18.2909293 3.56832888,18.0923563 C3.70776738,17.8939111 3.75790107,17.6553166 3.70963904,17.4208137 C2.99266043,13.9352368 3.54747326,10.9745422 5.35843583,8.62069098 C8.92955882,3.97922207 16.563115,2.55123517 20.7956016,2.1130447 C21.044131,2.08734401 21.2672594,1.97060403 21.4239439,1.78430595 C21.580762,1.59813574 21.6522861,1.36452793 21.6252807,1.12695632 C21.5699332,0.636469415 21.1080348,0.279600552 20.5942647,0.333303498 C16.0561631,0.803076412 7.84653743,2.36647146 3.85081551,7.55992993 C1.71632353,10.3341985 1.0509492,13.7681184 1.87314171,17.7665584 C1.90923797,17.9414766 1.99787433,18.1005396 2.12929144,18.2261022" id="Fill-4" fill="#89C547"></path>
                </g>
                <g id="Page-1-Copy-6" transform="translate(66.000000, 0.000000)">
                    <g id="Group-3" transform="translate(0.000000, 0.067768)">
                        <mask id="mask-6" fill="white">
                            <use xlink:href="#path-5"></use>
                        </mask>
                        <g id="Clip-2"></g>
                        <path d="M24.001484,0.0600577946 L24.0013503,0.0600577946 C23.4855749,0.0600577946 23.0656551,0.461423384 23.0655214,0.954723302 C23.0655214,0.987456526 23.0520187,4.26972944 22.126885,8.19349683 C20.6288904,14.545916 17.9258155,17.5059713 15.9219385,18.8706654 C13.1604412,20.7511636 9.61819519,21.1384641 5.38610963,20.025023 L5.73183155,19.6943663 L6.03998663,19.3995116 C6.03998663,19.3995116 6.04012032,19.3995116 6.04012032,19.3993837 L15.351484,10.4936452 C15.7164572,10.1447039 15.7164572,9.57685914 15.351484,9.22791786 C14.9867781,8.87897658 14.3929278,8.87897658 14.0280882,9.22791786 L2.96779412,19.8062474 C2.96779412,19.8063753 2.96766043,19.8063753 2.96766043,19.8065032 L0.273409091,22.3830938 C-0.0911631016,22.7320351 -0.0911631016,23.2998798 0.273409091,23.6488211 L0.273542781,23.648949 C0.456029412,23.8233557 0.695601604,23.910559 0.935307487,23.910559 C1.17487968,23.910559 1.41458556,23.8233557 1.59707219,23.6488211 L3.88276738,21.4627276 C6.00308824,22.1145791 7.98824866,22.4411441 9.83036096,22.4411441 C12.5409225,22.4411441 14.942393,21.7358454 17.0097727,20.3274217 C20.2814305,18.0981102 22.6891845,14.0247417 23.9727406,8.54742482 C24.9262166,4.47814802 24.9371791,1.09703611 24.9371791,0.95497903 C24.9370455,0.461679112 24.5172594,0.0601856588 24.001484,0.0600577946" id="Fill-1" fill="#89C547" mask="url(#mask-6)"></path>
                    </g>
                    <path d="M2.12929144,18.2261022 C2.30696524,18.3960337 2.54506684,18.4887352 2.79078877,18.4887352 C2.8509492,18.4887352 2.91164439,18.4831091 2.9719385,18.4717292 C3.21725936,18.4256981 3.42902406,18.2909293 3.56832888,18.0923563 C3.70776738,17.8939111 3.75790107,17.6553166 3.70963904,17.4208137 C2.99266043,13.9352368 3.54747326,10.9745422 5.35843583,8.62069098 C8.92955882,3.97922207 16.563115,2.55123517 20.7956016,2.1130447 C21.044131,2.08734401 21.2672594,1.97060403 21.4239439,1.78430595 C21.580762,1.59813574 21.6522861,1.36452793 21.6252807,1.12695632 C21.5699332,0.636469415 21.1080348,0.279600552 20.5942647,0.333303498 C16.0561631,0.803076412 7.84653743,2.36647146 3.85081551,7.55992993 C1.71632353,10.3341985 1.0509492,13.7681184 1.87314171,17.7665584 C1.90923797,17.9414766 1.99787433,18.1005396 2.12929144,18.2261022" id="Fill-4" fill="#89C547"></path>
                </g>
                <g id="Page-1-Copy-7" transform="translate(99.000000, 0.000000)">
                    <g id="Group-3" transform="translate(0.000000, 0.067768)">
                        <mask id="mask-8" fill="white">
                            <use xlink:href="#path-7"></use>
                        </mask>
                        <g id="Clip-2"></g>
                        <path d="M24.001484,0.0600577946 L24.0013503,0.0600577946 C23.4855749,0.0600577946 23.0656551,0.461423384 23.0655214,0.954723302 C23.0655214,0.987456526 23.0520187,4.26972944 22.126885,8.19349683 C20.6288904,14.545916 17.9258155,17.5059713 15.9219385,18.8706654 C13.1604412,20.7511636 9.61819519,21.1384641 5.38610963,20.025023 L5.73183155,19.6943663 L6.03998663,19.3995116 C6.03998663,19.3995116 6.04012032,19.3995116 6.04012032,19.3993837 L15.351484,10.4936452 C15.7164572,10.1447039 15.7164572,9.57685914 15.351484,9.22791786 C14.9867781,8.87897658 14.3929278,8.87897658 14.0280882,9.22791786 L2.96779412,19.8062474 C2.96779412,19.8063753 2.96766043,19.8063753 2.96766043,19.8065032 L0.273409091,22.3830938 C-0.0911631016,22.7320351 -0.0911631016,23.2998798 0.273409091,23.6488211 L0.273542781,23.648949 C0.456029412,23.8233557 0.695601604,23.910559 0.935307487,23.910559 C1.17487968,23.910559 1.41458556,23.8233557 1.59707219,23.6488211 L3.88276738,21.4627276 C6.00308824,22.1145791 7.98824866,22.4411441 9.83036096,22.4411441 C12.5409225,22.4411441 14.942393,21.7358454 17.0097727,20.3274217 C20.2814305,18.0981102 22.6891845,14.0247417 23.9727406,8.54742482 C24.9262166,4.47814802 24.9371791,1.09703611 24.9371791,0.95497903 C24.9370455,0.461679112 24.5172594,0.0601856588 24.001484,0.0600577946" id="Fill-1" fill="#89C547" mask="url(#mask-8)"></path>
                    </g>
                    <path d="M2.12929144,18.2261022 C2.30696524,18.3960337 2.54506684,18.4887352 2.79078877,18.4887352 C2.8509492,18.4887352 2.91164439,18.4831091 2.9719385,18.4717292 C3.21725936,18.4256981 3.42902406,18.2909293 3.56832888,18.0923563 C3.70776738,17.8939111 3.75790107,17.6553166 3.70963904,17.4208137 C2.99266043,13.9352368 3.54747326,10.9745422 5.35843583,8.62069098 C8.92955882,3.97922207 16.563115,2.55123517 20.7956016,2.1130447 C21.044131,2.08734401 21.2672594,1.97060403 21.4239439,1.78430595 C21.580762,1.59813574 21.6522861,1.36452793 21.6252807,1.12695632 C21.5699332,0.636469415 21.1080348,0.279600552 20.5942647,0.333303498 C16.0561631,0.803076412 7.84653743,2.36647146 3.85081551,7.55992993 C1.71632353,10.3341985 1.0509492,13.7681184 1.87314171,17.7665584 C1.90923797,17.9414766 1.99787433,18.1005396 2.12929144,18.2261022" id="Fill-4" fill="#89C547"></path>
                </g>
                <g id="Page-1-Copy-8" transform="translate(132.000000, 0.000000)">
                    <g id="Group-3" transform="translate(0.000000, 0.067768)">
                        <mask id="mask-10" fill="white">
                            <use xlink:href="#path-9"></use>
                        </mask>
                        <g id="Clip-2"></g>
                        <path d="M24.001484,0.0600577946 L24.0013503,0.0600577946 C23.4855749,0.0600577946 23.0656551,0.461423384 23.0655214,0.954723302 C23.0655214,0.987456526 23.0520187,4.26972944 22.126885,8.19349683 C20.6288904,14.545916 17.9258155,17.5059713 15.9219385,18.8706654 C13.1604412,20.7511636 9.61819519,21.1384641 5.38610963,20.025023 L5.73183155,19.6943663 L6.03998663,19.3995116 C6.03998663,19.3995116 6.04012032,19.3995116 6.04012032,19.3993837 L15.351484,10.4936452 C15.7164572,10.1447039 15.7164572,9.57685914 15.351484,9.22791786 C14.9867781,8.87897658 14.3929278,8.87897658 14.0280882,9.22791786 L2.96779412,19.8062474 C2.96779412,19.8063753 2.96766043,19.8063753 2.96766043,19.8065032 L0.273409091,22.3830938 C-0.0911631016,22.7320351 -0.0911631016,23.2998798 0.273409091,23.6488211 L0.273542781,23.648949 C0.456029412,23.8233557 0.695601604,23.910559 0.935307487,23.910559 C1.17487968,23.910559 1.41458556,23.8233557 1.59707219,23.6488211 L3.88276738,21.4627276 C6.00308824,22.1145791 7.98824866,22.4411441 9.83036096,22.4411441 C12.5409225,22.4411441 14.942393,21.7358454 17.0097727,20.3274217 C20.2814305,18.0981102 22.6891845,14.0247417 23.9727406,8.54742482 C24.9262166,4.47814802 24.9371791,1.09703611 24.9371791,0.95497903 C24.9370455,0.461679112 24.5172594,0.0601856588 24.001484,0.0600577946" id="Fill-1" fill="#89C547" mask="url(#mask-10)"></path>
                    </g>
                    <path d="M2.12929144,18.2261022 C2.30696524,18.3960337 2.54506684,18.4887352 2.79078877,18.4887352 C2.8509492,18.4887352 2.91164439,18.4831091 2.9719385,18.4717292 C3.21725936,18.4256981 3.42902406,18.2909293 3.56832888,18.0923563 C3.70776738,17.8939111 3.75790107,17.6553166 3.70963904,17.4208137 C2.99266043,13.9352368 3.54747326,10.9745422 5.35843583,8.62069098 C8.92955882,3.97922207 16.563115,2.55123517 20.7956016,2.1130447 C21.044131,2.08734401 21.2672594,1.97060403 21.4239439,1.78430595 C21.580762,1.59813574 21.6522861,1.36452793 21.6252807,1.12695632 C21.5699332,0.636469415 21.1080348,0.279600552 20.5942647,0.333303498 C16.0561631,0.803076412 7.84653743,2.36647146 3.85081551,7.55992993 C1.71632353,10.3341985 1.0509492,13.7681184 1.87314171,17.7665584 C1.90923797,17.9414766 1.99787433,18.1005396 2.12929144,18.2261022" id="Fill-4" fill="#89C547"></path>
                </g>
            </g>
        </g>
    </g>
</svg>
