<?xml version="1.0" encoding="UTF-8"?>
<svg width="16px" height="16px" viewBox="0 0 16 16" version="1.1" xmlns="http://www.w3.org/2000/svg" xmlns:xlink="http://www.w3.org/1999/xlink">
    <!-- Generator: Sketch 49.1 (51147) - http://www.bohemiancoding.com/sketch -->
    <title>Page 1 Copy 35</title>
    <desc>Created with Sketch.</desc>
    <defs>
        <polygon id="path-1" points="0 0 16 0 16 16 0 16"></polygon>
    </defs>
    <g id="Page-1" stroke="none" stroke-width="1" fill="none" fill-rule="evenodd">
        <g id="Mobile-Vendor-Landing-Page" transform="translate(-270.000000, -1571.000000)">
            <g id="Page-1-Copy-35" transform="translate(270.000000, 1571.000000)">
                <mask id="mask-2" fill="white">
                    <use xlink:href="#path-1"></use>
                </mask>
                <g id="Clip-2"></g>
                <path d="M14.3894949,7.25667039 C14.3751111,7.2793743 14.3625051,7.30315084 14.3515152,7.32782123 L8.15208081,14.6882682 L3.11822222,9.02793296 L4.92929293,9.02793296 C5.10723232,9.02793296 5.27086869,8.92013408 5.35563636,8.7470838 L6.00743434,7.41586592 L6.94109091,9.08656983 C7.02981818,9.24522905 7.18618182,9.34078212 7.35345455,9.34078212 C7.36347475,9.34078212 7.37357576,9.34042458 7.38359596,9.33979888 C7.56210101,9.32746369 7.71991919,9.20759777 7.79434343,9.02775419 L8.93365657,6.27521788 L9.7190303,7.81649162 C9.80492929,7.98507263 9.96638384,8.08938547 10.1414141,8.08938547 L11.1930505,8.08938547 C11.3561212,8.30784358 11.6027475,8.44692737 11.8787879,8.44692737 C12.369697,8.44692737 12.7676768,8.0067933 12.7676768,7.46368715 C12.7676768,6.92067039 12.369697,6.48044693 11.8787879,6.48044693 C11.5334949,6.48044693 11.2349091,6.69872626 11.0876768,7.01675978 L10.4247273,7.01675978 L9.31127273,4.83164246 C9.22173737,4.656 9.04921212,4.55195531 8.86852525,4.55910615 C8.68638384,4.56759777 8.5239596,4.68844693 8.448,4.87168715 L7.28969697,7.67034637 L6.39216162,6.06435754 C6.30125253,5.90167598 6.14020202,5.80424581 5.96589899,5.81032402 C5.7929697,5.81577654 5.63579798,5.92268156 5.55345455,6.09099441 L4.64048485,7.95530726 L2.16428283,7.95530726 L1.98876768,7.75794413 C1.98634343,7.75535196 1.98391919,7.75275978 1.98157576,7.7501676 L1.9559596,7.72254749 C1.31991919,6.98672626 0.96969697,6.0221676 0.96969697,5.00558659 C0.96969697,2.83700559 2.56468687,1.0726257 4.52525253,1.0726257 C5.77268687,1.0726257 6.94440404,1.81094972 7.58319192,2.99932961 C7.67062626,3.16192179 7.82892929,3.26158659 8,3.26158659 C8.1709899,3.26158659 8.32929293,3.16192179 8.41672727,2.99932961 C9.05551515,1.81094972 10.2273131,1.0726257 11.4747475,1.0726257 C13.4352323,1.0726257 15.030303,2.83700559 15.030303,5.00558659 C15.030303,5.81550838 14.8086465,6.59387709 14.3894949,7.25667039 M11.4747475,0 C10.1290505,0 8.85260606,0.674860335 8,1.8012067 C7.14731313,0.674860335 5.87094949,0 4.52525253,0 C2.0299798,0 0,2.24545251 0,5.00558659 C0,6.30346369 0.448161616,7.53430168 1.26189899,8.47168715 C1.26561616,8.47588827 1.26933333,8.48008939 1.27313131,8.48411173 L1.3010101,8.51423464 L1.52080808,8.76129609 C1.56161616,8.83870391 1.61931313,8.90350838 1.68848485,8.94989944 L7.81591919,15.8398212 C7.90715152,15.9424358 8.03167677,16 8.16161616,16 C8.16379798,16 8.1659798,16 8.16816162,15.9999106 C8.30036364,15.9980335 8.42618182,15.9363575 8.51636364,15.8292737 L15.1414949,7.96335196 C15.188202,7.90793296 15.2232727,7.84277095 15.2451717,7.77242458 C15.7393131,6.95043575 16,5.99642458 16,5.00558659 C16,2.24545251 13.9699394,0 11.4747475,0" id="Fill-1" fill="#C1C1C1" mask="url(#mask-2)"></path>
            </g>
        </g>
    </g>
</svg>