
<svg width="149px" height="25px" viewBox="0 0 149 25" version="1.1" xmlns="http://www.w3.org/2000/svg" xmlns:xlink="http://www.w3.org/1999/xlink">
    <!-- Generator: Sketch 49.1 (51147) - http://www.bohemiancoding.com/sketch -->
    <desc>Created with Sketch.</desc>
    <defs>
        <polygon id="path-1" points="0 0 25 0 25 25 0 25"></polygon>
        <polygon id="path-3" points="0 0 25 0 25 25 0 25"></polygon>
        <polygon id="path-5" points="0 0 25 0 25 25 0 25"></polygon>
        <polygon id="path-7" points="0 0 25 0 25 25 0 25"></polygon>
        <polygon id="path-9" points="0 0 25 0 25 25 0 25"></polygon>
    </defs>
    <g id="Page-1" stroke="none" stroke-width="1" fill="none" fill-rule="evenodd">
        <g id="Mobile-Vendor-Landing-Page" transform="translate(-87.000000, -855.000000)">
            <g id="Group-6" transform="translate(87.000000, 855.000000)">
                <g id="Page-1">
                    <mask id="mask-2" fill="white">
                        <use xlink:href="#path-1"></use>
                    </mask>
                    <g id="Clip-2"></g>
                    <path d="M22.4835859,11.3385475 C22.4611111,11.3740223 22.4414141,11.4111732 22.4242424,11.4497207 L12.7376263,22.950419 L4.87222222,14.1061453 L7.7020202,14.1061453 C7.98005051,14.1061453 8.23573232,13.9377095 8.36818182,13.6673184 L9.38661616,11.5872905 L10.8454545,14.1977654 C10.9840909,14.4456704 11.2284091,14.5949721 11.4897727,14.5949721 C11.5054293,14.5949721 11.5212121,14.5944134 11.5368687,14.5934358 C11.8157828,14.574162 12.0623737,14.3868715 12.1786616,14.1058659 L13.9588384,9.80502793 L15.1859848,12.2132682 C15.320202,12.476676 15.5724747,12.6396648 15.8459596,12.6396648 L17.4891414,12.6396648 C17.7439394,12.9810056 18.1292929,13.198324 18.5606061,13.198324 C19.3276515,13.198324 19.9494949,12.5106145 19.9494949,11.6620112 C19.9494949,10.8135475 19.3276515,10.1256983 18.5606061,10.1256983 C18.0210859,10.1256983 17.5545455,10.4667598 17.3244949,10.9636872 L16.2886364,10.9636872 L14.5488636,7.54944134 C14.4089646,7.275 14.1393939,7.11243017 13.8570707,7.12360335 C13.5724747,7.13687151 13.3186869,7.32569832 13.2,7.61201117 L11.3901515,11.9849162 L9.98775253,9.47555866 C9.84570707,9.22136872 9.59406566,9.06913408 9.32171717,9.07863128 C9.05151515,9.08715084 8.80593434,9.25418994 8.67727273,9.51717877 L7.25075758,12.4301676 L3.38169192,12.4301676 L3.10744949,12.1217877 C3.10366162,12.1177374 3.09987374,12.1136872 3.09621212,12.1096369 L3.05618687,12.0664804 C2.06237374,10.9167598 1.51515152,9.40963687 1.51515152,7.82122905 C1.51515152,4.43282123 4.00732323,1.67597765 7.07070707,1.67597765 C9.01982323,1.67597765 10.8506313,2.82960894 11.8487374,4.68645251 C11.9853535,4.94050279 12.232702,5.09622905 12.5,5.09622905 C12.7671717,5.09622905 13.0145202,4.94050279 13.1511364,4.68645251 C14.1492424,2.82960894 15.9801768,1.67597765 17.9292929,1.67597765 C20.9925505,1.67597765 23.4848485,4.43282123 23.4848485,7.82122905 C23.4848485,9.08673184 23.1385101,10.302933 22.4835859,11.3385475 M17.9292929,0 C15.8266414,0 13.832197,1.05446927 12.5,2.81438547 C11.1676768,1.05446927 9.17335859,0 7.07070707,0 C3.17184343,0 0,3.50851955 0,7.82122905 C0,9.84916201 0.700252525,11.7723464 1.97171717,13.2370112 C1.97752525,13.2435754 1.98333333,13.2501397 1.98926768,13.2564246 L2.03282828,13.3034916 L2.37626263,13.6895251 C2.44002525,13.8104749 2.53017677,13.9117318 2.63825758,13.9842179 L12.2123737,24.7497207 C12.3549242,24.9100559 12.5494949,25 12.7525253,25 C12.7559343,25 12.7593434,25 12.7627525,24.9998603 C12.9693182,24.9969274 13.1659091,24.9005587 13.3068182,24.7332402 L23.6585859,12.4427374 C23.7315657,12.3561453 23.7863636,12.2543296 23.8205808,12.1444134 C24.5926768,10.8600559 25,9.36941341 25,7.82122905 C25,3.50851955 21.8280303,0 17.9292929,0" id="Fill-1" fill="#C52585" mask="url(#mask-2)"></path>
                </g>
                <g id="Page-1-Copy" transform="translate(31.000000, 0.000000)">
                    <mask id="mask-4" fill="white">
                        <use xlink:href="#path-3"></use>
                    </mask>
                    <g id="Clip-2"></g>
                    <path d="M22.4835859,11.3385475 C22.4611111,11.3740223 22.4414141,11.4111732 22.4242424,11.4497207 L12.7376263,22.950419 L4.87222222,14.1061453 L7.7020202,14.1061453 C7.98005051,14.1061453 8.23573232,13.9377095 8.36818182,13.6673184 L9.38661616,11.5872905 L10.8454545,14.1977654 C10.9840909,14.4456704 11.2284091,14.5949721 11.4897727,14.5949721 C11.5054293,14.5949721 11.5212121,14.5944134 11.5368687,14.5934358 C11.8157828,14.574162 12.0623737,14.3868715 12.1786616,14.1058659 L13.9588384,9.80502793 L15.1859848,12.2132682 C15.320202,12.476676 15.5724747,12.6396648 15.8459596,12.6396648 L17.4891414,12.6396648 C17.7439394,12.9810056 18.1292929,13.198324 18.5606061,13.198324 C19.3276515,13.198324 19.9494949,12.5106145 19.9494949,11.6620112 C19.9494949,10.8135475 19.3276515,10.1256983 18.5606061,10.1256983 C18.0210859,10.1256983 17.5545455,10.4667598 17.3244949,10.9636872 L16.2886364,10.9636872 L14.5488636,7.54944134 C14.4089646,7.275 14.1393939,7.11243017 13.8570707,7.12360335 C13.5724747,7.13687151 13.3186869,7.32569832 13.2,7.61201117 L11.3901515,11.9849162 L9.98775253,9.47555866 C9.84570707,9.22136872 9.59406566,9.06913408 9.32171717,9.07863128 C9.05151515,9.08715084 8.80593434,9.25418994 8.67727273,9.51717877 L7.25075758,12.4301676 L3.38169192,12.4301676 L3.10744949,12.1217877 C3.10366162,12.1177374 3.09987374,12.1136872 3.09621212,12.1096369 L3.05618687,12.0664804 C2.06237374,10.9167598 1.51515152,9.40963687 1.51515152,7.82122905 C1.51515152,4.43282123 4.00732323,1.67597765 7.07070707,1.67597765 C9.01982323,1.67597765 10.8506313,2.82960894 11.8487374,4.68645251 C11.9853535,4.94050279 12.232702,5.09622905 12.5,5.09622905 C12.7671717,5.09622905 13.0145202,4.94050279 13.1511364,4.68645251 C14.1492424,2.82960894 15.9801768,1.67597765 17.9292929,1.67597765 C20.9925505,1.67597765 23.4848485,4.43282123 23.4848485,7.82122905 C23.4848485,9.08673184 23.1385101,10.302933 22.4835859,11.3385475 M17.9292929,0 C15.8266414,0 13.832197,1.05446927 12.5,2.81438547 C11.1676768,1.05446927 9.17335859,0 7.07070707,0 C3.17184343,0 0,3.50851955 0,7.82122905 C0,9.84916201 0.700252525,11.7723464 1.97171717,13.2370112 C1.97752525,13.2435754 1.98333333,13.2501397 1.98926768,13.2564246 L2.03282828,13.3034916 L2.37626263,13.6895251 C2.44002525,13.8104749 2.53017677,13.9117318 2.63825758,13.9842179 L12.2123737,24.7497207 C12.3549242,24.9100559 12.5494949,25 12.7525253,25 C12.7559343,25 12.7593434,25 12.7627525,24.9998603 C12.9693182,24.9969274 13.1659091,24.9005587 13.3068182,24.7332402 L23.6585859,12.4427374 C23.7315657,12.3561453 23.7863636,12.2543296 23.8205808,12.1444134 C24.5926768,10.8600559 25,9.36941341 25,7.82122905 C25,3.50851955 21.8280303,0 17.9292929,0" id="Fill-1" fill="#C52585" mask="url(#mask-4)"></path>
                </g>
                <g id="Page-1-Copy-2" transform="translate(62.000000, 0.000000)">
                    <mask id="mask-6" fill="white">
                        <use xlink:href="#path-5"></use>
                    </mask>
                    <g id="Clip-2"></g>
                    <path d="M22.4835859,11.3385475 C22.4611111,11.3740223 22.4414141,11.4111732 22.4242424,11.4497207 L12.7376263,22.950419 L4.87222222,14.1061453 L7.7020202,14.1061453 C7.98005051,14.1061453 8.23573232,13.9377095 8.36818182,13.6673184 L9.38661616,11.5872905 L10.8454545,14.1977654 C10.9840909,14.4456704 11.2284091,14.5949721 11.4897727,14.5949721 C11.5054293,14.5949721 11.5212121,14.5944134 11.5368687,14.5934358 C11.8157828,14.574162 12.0623737,14.3868715 12.1786616,14.1058659 L13.9588384,9.80502793 L15.1859848,12.2132682 C15.320202,12.476676 15.5724747,12.6396648 15.8459596,12.6396648 L17.4891414,12.6396648 C17.7439394,12.9810056 18.1292929,13.198324 18.5606061,13.198324 C19.3276515,13.198324 19.9494949,12.5106145 19.9494949,11.6620112 C19.9494949,10.8135475 19.3276515,10.1256983 18.5606061,10.1256983 C18.0210859,10.1256983 17.5545455,10.4667598 17.3244949,10.9636872 L16.2886364,10.9636872 L14.5488636,7.54944134 C14.4089646,7.275 14.1393939,7.11243017 13.8570707,7.12360335 C13.5724747,7.13687151 13.3186869,7.32569832 13.2,7.61201117 L11.3901515,11.9849162 L9.98775253,9.47555866 C9.84570707,9.22136872 9.59406566,9.06913408 9.32171717,9.07863128 C9.05151515,9.08715084 8.80593434,9.25418994 8.67727273,9.51717877 L7.25075758,12.4301676 L3.38169192,12.4301676 L3.10744949,12.1217877 C3.10366162,12.1177374 3.09987374,12.1136872 3.09621212,12.1096369 L3.05618687,12.0664804 C2.06237374,10.9167598 1.51515152,9.40963687 1.51515152,7.82122905 C1.51515152,4.43282123 4.00732323,1.67597765 7.07070707,1.67597765 C9.01982323,1.67597765 10.8506313,2.82960894 11.8487374,4.68645251 C11.9853535,4.94050279 12.232702,5.09622905 12.5,5.09622905 C12.7671717,5.09622905 13.0145202,4.94050279 13.1511364,4.68645251 C14.1492424,2.82960894 15.9801768,1.67597765 17.9292929,1.67597765 C20.9925505,1.67597765 23.4848485,4.43282123 23.4848485,7.82122905 C23.4848485,9.08673184 23.1385101,10.302933 22.4835859,11.3385475 M17.9292929,0 C15.8266414,0 13.832197,1.05446927 12.5,2.81438547 C11.1676768,1.05446927 9.17335859,0 7.07070707,0 C3.17184343,0 0,3.50851955 0,7.82122905 C0,9.84916201 0.700252525,11.7723464 1.97171717,13.2370112 C1.97752525,13.2435754 1.98333333,13.2501397 1.98926768,13.2564246 L2.03282828,13.3034916 L2.37626263,13.6895251 C2.44002525,13.8104749 2.53017677,13.9117318 2.63825758,13.9842179 L12.2123737,24.7497207 C12.3549242,24.9100559 12.5494949,25 12.7525253,25 C12.7559343,25 12.7593434,25 12.7627525,24.9998603 C12.9693182,24.9969274 13.1659091,24.9005587 13.3068182,24.7332402 L23.6585859,12.4427374 C23.7315657,12.3561453 23.7863636,12.2543296 23.8205808,12.1444134 C24.5926768,10.8600559 25,9.36941341 25,7.82122905 C25,3.50851955 21.8280303,0 17.9292929,0" id="Fill-1" fill="#C52585" mask="url(#mask-6)"></path>
                </g>
                <g id="Page-1-Copy-3" transform="translate(92.000000, 0.000000)">
                    <mask id="mask-8" fill="white">
                        <use xlink:href="#path-7"></use>
                    </mask>
                    <g id="Clip-2"></g>
                    <path d="M22.4835859,11.3385475 C22.4611111,11.3740223 22.4414141,11.4111732 22.4242424,11.4497207 L12.7376263,22.950419 L4.87222222,14.1061453 L7.7020202,14.1061453 C7.98005051,14.1061453 8.23573232,13.9377095 8.36818182,13.6673184 L9.38661616,11.5872905 L10.8454545,14.1977654 C10.9840909,14.4456704 11.2284091,14.5949721 11.4897727,14.5949721 C11.5054293,14.5949721 11.5212121,14.5944134 11.5368687,14.5934358 C11.8157828,14.574162 12.0623737,14.3868715 12.1786616,14.1058659 L13.9588384,9.80502793 L15.1859848,12.2132682 C15.320202,12.476676 15.5724747,12.6396648 15.8459596,12.6396648 L17.4891414,12.6396648 C17.7439394,12.9810056 18.1292929,13.198324 18.5606061,13.198324 C19.3276515,13.198324 19.9494949,12.5106145 19.9494949,11.6620112 C19.9494949,10.8135475 19.3276515,10.1256983 18.5606061,10.1256983 C18.0210859,10.1256983 17.5545455,10.4667598 17.3244949,10.9636872 L16.2886364,10.9636872 L14.5488636,7.54944134 C14.4089646,7.275 14.1393939,7.11243017 13.8570707,7.12360335 C13.5724747,7.13687151 13.3186869,7.32569832 13.2,7.61201117 L11.3901515,11.9849162 L9.98775253,9.47555866 C9.84570707,9.22136872 9.59406566,9.06913408 9.32171717,9.07863128 C9.05151515,9.08715084 8.80593434,9.25418994 8.67727273,9.51717877 L7.25075758,12.4301676 L3.38169192,12.4301676 L3.10744949,12.1217877 C3.10366162,12.1177374 3.09987374,12.1136872 3.09621212,12.1096369 L3.05618687,12.0664804 C2.06237374,10.9167598 1.51515152,9.40963687 1.51515152,7.82122905 C1.51515152,4.43282123 4.00732323,1.67597765 7.07070707,1.67597765 C9.01982323,1.67597765 10.8506313,2.82960894 11.8487374,4.68645251 C11.9853535,4.94050279 12.232702,5.09622905 12.5,5.09622905 C12.7671717,5.09622905 13.0145202,4.94050279 13.1511364,4.68645251 C14.1492424,2.82960894 15.9801768,1.67597765 17.9292929,1.67597765 C20.9925505,1.67597765 23.4848485,4.43282123 23.4848485,7.82122905 C23.4848485,9.08673184 23.1385101,10.302933 22.4835859,11.3385475 M17.9292929,0 C15.8266414,0 13.832197,1.05446927 12.5,2.81438547 C11.1676768,1.05446927 9.17335859,0 7.07070707,0 C3.17184343,0 0,3.50851955 0,7.82122905 C0,9.84916201 0.700252525,11.7723464 1.97171717,13.2370112 C1.97752525,13.2435754 1.98333333,13.2501397 1.98926768,13.2564246 L2.03282828,13.3034916 L2.37626263,13.6895251 C2.44002525,13.8104749 2.53017677,13.9117318 2.63825758,13.9842179 L12.2123737,24.7497207 C12.3549242,24.9100559 12.5494949,25 12.7525253,25 C12.7559343,25 12.7593434,25 12.7627525,24.9998603 C12.9693182,24.9969274 13.1659091,24.9005587 13.3068182,24.7332402 L23.6585859,12.4427374 C23.7315657,12.3561453 23.7863636,12.2543296 23.8205808,12.1444134 C24.5926768,10.8600559 25,9.36941341 25,7.82122905 C25,3.50851955 21.8280303,0 17.9292929,0" id="Fill-1" fill="#C52585" mask="url(#mask-8)"></path>
                </g>
                <g id="Page-1-Copy-4" transform="translate(124.000000, 0.000000)">
                    <mask id="mask-10" fill="white">
                        <use xlink:href="#path-9"></use>
                    </mask>
                    <g id="Clip-2"></g>
                    <path d="M22.4835859,11.3385475 C22.4611111,11.3740223 22.4414141,11.4111732 22.4242424,11.4497207 L12.7376263,22.950419 L4.87222222,14.1061453 L7.7020202,14.1061453 C7.98005051,14.1061453 8.23573232,13.9377095 8.36818182,13.6673184 L9.38661616,11.5872905 L10.8454545,14.1977654 C10.9840909,14.4456704 11.2284091,14.5949721 11.4897727,14.5949721 C11.5054293,14.5949721 11.5212121,14.5944134 11.5368687,14.5934358 C11.8157828,14.574162 12.0623737,14.3868715 12.1786616,14.1058659 L13.9588384,9.80502793 L15.1859848,12.2132682 C15.320202,12.476676 15.5724747,12.6396648 15.8459596,12.6396648 L17.4891414,12.6396648 C17.7439394,12.9810056 18.1292929,13.198324 18.5606061,13.198324 C19.3276515,13.198324 19.9494949,12.5106145 19.9494949,11.6620112 C19.9494949,10.8135475 19.3276515,10.1256983 18.5606061,10.1256983 C18.0210859,10.1256983 17.5545455,10.4667598 17.3244949,10.9636872 L16.2886364,10.9636872 L14.5488636,7.54944134 C14.4089646,7.275 14.1393939,7.11243017 13.8570707,7.12360335 C13.5724747,7.13687151 13.3186869,7.32569832 13.2,7.61201117 L11.3901515,11.9849162 L9.98775253,9.47555866 C9.84570707,9.22136872 9.59406566,9.06913408 9.32171717,9.07863128 C9.05151515,9.08715084 8.80593434,9.25418994 8.67727273,9.51717877 L7.25075758,12.4301676 L3.38169192,12.4301676 L3.10744949,12.1217877 C3.10366162,12.1177374 3.09987374,12.1136872 3.09621212,12.1096369 L3.05618687,12.0664804 C2.06237374,10.9167598 1.51515152,9.40963687 1.51515152,7.82122905 C1.51515152,4.43282123 4.00732323,1.67597765 7.07070707,1.67597765 C9.01982323,1.67597765 10.8506313,2.82960894 11.8487374,4.68645251 C11.9853535,4.94050279 12.232702,5.09622905 12.5,5.09622905 C12.7671717,5.09622905 13.0145202,4.94050279 13.1511364,4.68645251 C14.1492424,2.82960894 15.9801768,1.67597765 17.9292929,1.67597765 C20.9925505,1.67597765 23.4848485,4.43282123 23.4848485,7.82122905 C23.4848485,9.08673184 23.1385101,10.302933 22.4835859,11.3385475 M17.9292929,0 C15.8266414,0 13.832197,1.05446927 12.5,2.81438547 C11.1676768,1.05446927 9.17335859,0 7.07070707,0 C3.17184343,0 0,3.50851955 0,7.82122905 C0,9.84916201 0.700252525,11.7723464 1.97171717,13.2370112 C1.97752525,13.2435754 1.98333333,13.2501397 1.98926768,13.2564246 L2.03282828,13.3034916 L2.37626263,13.6895251 C2.44002525,13.8104749 2.53017677,13.9117318 2.63825758,13.9842179 L12.2123737,24.7497207 C12.3549242,24.9100559 12.5494949,25 12.7525253,25 C12.7559343,25 12.7593434,25 12.7627525,24.9998603 C12.9693182,24.9969274 13.1659091,24.9005587 13.3068182,24.7332402 L23.6585859,12.4427374 C23.7315657,12.3561453 23.7863636,12.2543296 23.8205808,12.1444134 C24.5926768,10.8600559 25,9.36941341 25,7.82122905 C25,3.50851955 21.8280303,0 17.9292929,0" id="Fill-1" fill="#C52585" mask="url(#mask-10)"></path>
                </g>
            </g>
        </g>
    </g>
</svg>
