<svg width="16px" height="16px" viewBox="0 0 16 16" version="1.1" xmlns="http://www.w3.org/2000/svg" xmlns:xlink="http://www.w3.org/1999/xlink">
    <!-- Generator: Sketch 49.1 (51147) - http://www.bohemiancoding.com/sketch -->
    <desc>Created with Sketch.</desc>
    <defs>
        <polygon id="path-1" points="0 0.0384615385 15.9597861 0.0384615385 15.9597861 15.3027578 0 15.3027578"></polygon>
    </defs>
    <g id="Page-1" stroke="none" stroke-width="1" fill="none" fill-rule="evenodd">
        <g id="Mobile-Vendor-Landing-Page" transform="translate(-117.000000, -1596.000000)">
            <g id="Page-1-Copy-44" transform="translate(117.000000, 1596.000000)">
                <g id="Group-3" transform="translate(0.000000, 0.043372)">
                    <mask id="mask-2" fill="white">
                        <use xlink:href="#path-1"></use>
                    </mask>
                    <g id="Clip-2"></g>
                    <path d="M15.3609497,0.0384369885 L15.3608642,0.0384369885 C15.0307679,0.0384369885 14.7620193,0.295310966 14.7619337,0.611022913 C14.7619337,0.631972177 14.753292,2.73262684 14.1612064,5.24383797 C13.2024898,9.30938625 11.4725219,11.2038216 10.1900406,12.0772259 C8.42268235,13.2807447 6.15564492,13.528617 3.44711016,12.8160147 L3.66837219,12.6043944 L3.86559144,12.4156874 C3.86559144,12.4156874 3.86567701,12.4156874 3.86567701,12.4156056 L9.82494973,6.7159329 C10.0585326,6.49261047 10.0585326,6.12918985 9.82494973,5.90586743 C9.59153797,5.68254501 9.2114738,5.68254501 8.97797647,5.90586743 L1.89938824,12.6759984 C1.89938824,12.6760802 1.89930267,12.6760802 1.89930267,12.676162 L0.174981818,14.32518 C-0.058344385,14.5485025 -0.058344385,14.9119231 0.174981818,15.1352455 L0.17506738,15.1353273 C0.291858824,15.2469476 0.445185027,15.3027578 0.598596791,15.3027578 C0.751922995,15.3027578 0.905334759,15.2469476 1.0221262,15.1352455 L2.48497112,13.7361457 C3.84197647,14.1533306 5.11247914,14.3623322 6.29143102,14.3623322 C8.02619037,14.3623322 9.56313155,13.9109411 10.8862545,13.0095499 C12.9801155,11.5827905 14.5210781,8.9758347 15.342554,5.47035188 C15.9527786,2.86601473 15.9597947,0.70210311 15.9597947,0.611186579 C15.9597091,0.295474632 15.691046,0.0385188216 15.3609497,0.0384369885" id="Fill-1" fill="#C1C1C1" mask="url(#mask-2)"></path>
                </g>
                <path d="M1.36274652,11.6647054 C1.47645775,11.7734615 1.62884278,11.8327905 1.78610481,11.8327905 C1.82460749,11.8327905 1.86345241,11.8291899 1.90204064,11.8219067 C2.05904599,11.7924468 2.1945754,11.7061948 2.28373048,11.579108 C2.37297112,11.4521031 2.40505668,11.2994026 2.37416898,11.1493208 C1.91530267,8.91855155 2.27038289,7.02370704 3.42939893,5.51724223 C5.71491765,2.54670213 10.6003936,1.63279051 13.309185,1.35234861 C13.4682439,1.33590016 13.611046,1.26118658 13.7113241,1.14195581 C13.8116877,1.02280687 13.8574631,0.873297872 13.8401797,0.721252046 C13.8047572,0.407340426 13.5091422,0.178944354 13.1803294,0.213314239 C10.2759444,0.513968903 5.02178396,1.51454173 2.46452193,4.83835516 C1.09844706,6.61388707 0.672607487,8.81159574 1.1988107,11.3705974 C1.2219123,11.482545 1.27863957,11.5843453 1.36274652,11.6647054" id="Fill-4" fill="#C1C1C1"></path>
            </g>
        </g>
    </g>
</svg>
